HIERARCHY
ROOT Hips
{
  OFFSET 5.84602e-005 68.8428 3.50346
  CHANNELS 6 Xposition Yposition Zposition Zrotation Xrotation Yrotation
  JOINT Spine
  {
    OFFSET 0 8.597 -4.6522
    CHANNELS 3 Zrotation Xrotation Yrotation
    JOINT Spine1
    {
      OFFSET 0 7.8454 0.4098
      CHANNELS 3 Zrotation Xrotation Yrotation
      JOINT Spine2
      {
        OFFSET 0 9.7078 -2.1609
        CHANNELS 3 Zrotation Xrotation Yrotation
        JOINT Neck
        {
          OFFSET 0 21.8761 -0.4549
          CHANNELS 3 Zrotation Xrotation Yrotation
          JOINT Head
          {
            OFFSET 0 12.3537 3.3602
            CHANNELS 3 Zrotation Xrotation Yrotation
            End Site
            {
              OFFSET 0.0001 18.9506 0.5657
            }
          }
        }
        JOINT LeftShoulder
        {
          OFFSET 2.2086 21.1115 7.2329
          CHANNELS 3 Zrotation Xrotation Yrotation
          JOINT LeftArm
          {
            OFFSET 13.1193 3.0282 -4.8998
            CHANNELS 3 Zrotation Xrotation Yrotation
            JOINT LeftForeArm
            {
              OFFSET 27.4081 -0.0973053 -0.2375
              CHANNELS 3 Zrotation Xrotation Yrotation
              JOINT LeftHand
              {
                OFFSET 22.8641 0.0662994 -0.1369
                CHANNELS 3 Zrotation Xrotation Yrotation
                JOINT LeftHandIndex1
                {
                  OFFSET 8.8614 0.775009 2.4612
                  CHANNELS 3 Zrotation Xrotation Yrotation
                  JOINT LeftHandIndex2
                  {
                    OFFSET 3.3146 -0.808304 0.5841
                    CHANNELS 3 Zrotation Xrotation Yrotation
                    JOINT LeftHandIndex3
                    {
                      OFFSET 2.2628 -0.552002 0.3989
                      CHANNELS 3 Zrotation Xrotation Yrotation
                      End Site
                      {
                        OFFSET 1.6102 -0.4807 0.2612
                      }
                    }
                  }
                }
                JOINT LeftHandMiddle1
                {
                  OFFSET 8.9937 0.895004 0.2143
                  CHANNELS 3 Zrotation Xrotation Yrotation
                  JOINT LeftHandMiddle2
                  {
                    OFFSET 4.0984 0.0113983 -0.0242
                    CHANNELS 3 Zrotation Xrotation Yrotation
                    JOINT LeftHandMiddle3
                    {
                      OFFSET 2.2716 0.00689697 -0.0138001
                      CHANNELS 3 Zrotation Xrotation Yrotation
                      End Site
                      {
                        OFFSET 2.0404 -0.1441 0.0027
                      }
                    }
                  }
                }
                JOINT LeftHandRing1
                {
                  OFFSET 8.5234 0.597198 -2.0164
                  CHANNELS 3 Zrotation Xrotation Yrotation
                  JOINT LeftHandRing2
                  {
                    OFFSET 3.7188 -0.188293 -0.2328
                    CHANNELS 3 Zrotation Xrotation Yrotation
                    JOINT LeftHandRing3
                    {
                      OFFSET 2.1191 -0.106598 -0.1332
                      CHANNELS 3 Zrotation Xrotation Yrotation
                      End Site
                      {
                        OFFSET 1.8737 -0.2304 -0.0886
                      }
                    }
                  }
                }
                JOINT LeftHandPinky1
                {
                  OFFSET 7.9094 -0.601089 -3.4825
                  CHANNELS 3 Zrotation Xrotation Yrotation
                  JOINT LeftHandPinky2
                  {
                    OFFSET 2.2874 -0.477005 -0.6314
                    CHANNELS 3 Zrotation Xrotation Yrotation
                    JOINT LeftHandPinky3
                    {
                      OFFSET 1.6774 -0.349396 -0.4633
                      CHANNELS 3 Zrotation Xrotation Yrotation
                      End Site
                      {
                        OFFSET 1.4888 -0.4091 -0.3416
                      }
                    }
                  }
                }
                JOINT LeftHandThumb1
                {
                  OFFSET 1.833 -1.3875 1.3896
                  CHANNELS 3 Zrotation Xrotation Yrotation
                  JOINT LeftHandThumb2
                  {
                    OFFSET 3.4129 -1.121 2.5732
                    CHANNELS 3 Zrotation Xrotation Yrotation
                    JOINT LeftHandThumb3
                    {
                      OFFSET 2.2474 -0.804199 1.6192
                      CHANNELS 3 Zrotation Xrotation Yrotation
                      End Site
                      {
                        OFFSET 1.6527 -0.5689 1.1317
                      }
                    }
                  }
                }
              }
            }
          }
        }
        JOINT RightShoulder
        {
          OFFSET -2.2086 21.1115 7.2329
          CHANNELS 3 Zrotation Xrotation Yrotation
          JOINT RightArm
          {
            OFFSET -13.1216 3.0287 -4.9007
            CHANNELS 3 Zrotation Xrotation Yrotation
            JOINT RightForeArm
            {
              OFFSET -27.4081 -0.0973053 -0.2375
              CHANNELS 3 Zrotation Xrotation Yrotation
              JOINT RightHand
              {
                OFFSET -22.8641 0.0664063 -0.1369
                CHANNELS 3 Zrotation Xrotation Yrotation
                JOINT RightHandIndex1
                {
                  OFFSET -8.8614 0.774994 2.4612
                  CHANNELS 3 Zrotation Xrotation Yrotation
                  JOINT RightHandIndex2
                  {
                    OFFSET -3.3146 -0.808304 0.5841
                    CHANNELS 3 Zrotation Xrotation Yrotation
                    JOINT RightHandIndex3
                    {
                      OFFSET -2.2628 -0.552002 0.3989
                      CHANNELS 3 Zrotation Xrotation Yrotation
                      End Site
                      {
                        OFFSET -1.6102 -0.4807 0.2612
                      }
                    }
                  }
                }
                JOINT RightHandMiddle1
                {
                  OFFSET -8.9937 0.894989 0.2143
                  CHANNELS 3 Zrotation Xrotation Yrotation
                  JOINT RightHandMiddle2
                  {
                    OFFSET -4.0984 0.0113983 -0.0242
                    CHANNELS 3 Zrotation Xrotation Yrotation
                    JOINT RightHandMiddle3
                    {
                      OFFSET -2.2716 0.00691223 -0.0138001
                      CHANNELS 3 Zrotation Xrotation Yrotation
                      End Site
                      {
                        OFFSET -2.0404 -0.1441 0.0027
                      }
                    }
                  }
                }
                JOINT RightHandRing1
                {
                  OFFSET -8.5234 0.597198 -2.0164
                  CHANNELS 3 Zrotation Xrotation Yrotation
                  JOINT RightHandRing2
                  {
                    OFFSET -3.7188 -0.188309 -0.2328
                    CHANNELS 3 Zrotation Xrotation Yrotation
                    JOINT RightHandRing3
                    {
                      OFFSET -2.1191 -0.106598 -0.1332
                      CHANNELS 3 Zrotation Xrotation Yrotation
                      End Site
                      {
                        OFFSET -1.8737 -0.2304 -0.0886
                      }
                    }
                  }
                }
                JOINT RightHandPinky1
                {
                  OFFSET -7.9094 -0.601105 -3.4825
                  CHANNELS 3 Zrotation Xrotation Yrotation
                  JOINT RightHandPinky2
                  {
                    OFFSET -2.2874 -0.477005 -0.6314
                    CHANNELS 3 Zrotation Xrotation Yrotation
                    JOINT RightHandPinky3
                    {
                      OFFSET -1.6774 -0.349396 -0.4633
                      CHANNELS 3 Zrotation Xrotation Yrotation
                      End Site
                      {
                        OFFSET -1.4888 -0.4091 -0.3416
                      }
                    }
                  }
                }
                JOINT RightHandThumb1
                {
                  OFFSET -1.833 -1.38751 1.3896
                  CHANNELS 3 Zrotation Xrotation Yrotation
                  JOINT RightHandThumb2
                  {
                    OFFSET -3.41299 -1.12099 2.5732
                    CHANNELS 3 Zrotation Xrotation Yrotation
                    JOINT RightHandThumb3
                    {
                      OFFSET -2.24741 -0.804108 1.6192
                      CHANNELS 3 Zrotation Xrotation Yrotation
                      End Site
                      {
                        OFFSET -1.6527 -0.5689 1.1317
                      }
                    }
                  }
                }
              }
            }
          }
        }
      }
    }
  }
  JOINT RightUpLeg
  {
    OFFSET -9.1966 3.8861 -0.7581
    CHANNELS 3 Zrotation Xrotation Yrotation
    JOINT RightLeg
    {
      OFFSET -0.7359 -41.0265 0
      CHANNELS 3 Zrotation Xrotation Yrotation
      JOINT RightFoot
      {
        OFFSET 0 -40.2855 0
        CHANNELS 3 Zrotation Xrotation Yrotation
        JOINT RightToeBase
        {
          OFFSET 0 -5.6122 11.7359
          CHANNELS 3 Zrotation Xrotation Yrotation
          End Site
          {
            OFFSET 0 0 7.8731
          }
        }
      }
    }
  }
  JOINT LeftUpLeg
  {
    OFFSET 9.1965 3.8864 -0.7581
    CHANNELS 3 Zrotation Xrotation Yrotation
    JOINT LeftLeg
    {
      OFFSET 0.7359 -41.0268 0
      CHANNELS 3 Zrotation Xrotation Yrotation
      JOINT LeftFoot
      {
        OFFSET 0 -40.2855 0
        CHANNELS 3 Zrotation Xrotation Yrotation
        JOINT LeftToeBase
        {
          OFFSET 0 -5.6122 11.7359
          CHANNELS 3 Zrotation Xrotation Yrotation
          End Site
          {
            OFFSET 0 0 7.8731
          }
        }
      }
    }
  }
}
MOTION
Frames:	4
Frame Time:	0.0333333
5.84602e-005 68.8428 3.50346 0 0 -0 0 0 -0 0 0 -0 0 0 -0 0 0 -0 0 0 -0 0 0 -0 0 0 -0 0 0 -0 0 0 -0 0 0 -0 0 0 -0 0 0 -0 0 0 -0 -0.0146107 -8.87603e-005 -2.63497e-007 2.99804e-018 -2.42657e-020 -1.42182e-022 0 0 -0 -0.0187562 -0.001176 5.858e-005 5.06224e-018 3.88251e-019 1.21329e-020 0 0 -0 -0.012269 -0.00324817 0.000675346 -1.74678e-018 3.88251e-019 -0 0 0 -0 0 0 -0 0 0 -0 0 0 -0 0 0 -0 0 0 -0 0 0 -0 0 0 -0 0 0 -0 0 0 -0 0 0 -0 0.0149955 -9.10982e-005 2.64101e-007 -9.69331e-018 1.21329e-020 -4.7394e-023 0 0 -0 0.0189956 -0.00119102 -5.96516e-005 -5.41541e-019 0 2.42657e-020 0 0 -0 0.0122698 -0.00324857 -0.000673756 -2.00796e-019 0 -1.94126e-019 0 0 -0 0 0 -0 0 0 -0 3.39842 1.33031 -0.0637918 -5.65207e-008 0.834868 -0.000436188 -3.39935 -2.16518 -0.0642563 -8.89002e-024 -1.18485e-023 -1.48106e-024 -3.39844 1.35642 0.0640283 -3.18788e-007 0.782166 -0.000588827 3.39931 -2.13858 0.0634662 1.1399e-023 0 -0 
-42.8332 88.9076 3.87359 -133.333 -5.18128 -4.3875e-008 -0.0816976 -2.42039 -0.180993 -0.171175 -4.84049 -0.365921 -0.171153 -4.8405 -0.365921 3.41627e-006 19.9576 -8.92773e-007 6.29161e-006 -27.9196 3.52878e-006 -11.951 5.49119 7.03807 4.17505 3.39539 -55.6837 -12.5139 -7.52004 -40.0601 -20.639 -35.7535 -12.4239 3.18055e-015 5.96354e-016 -1.59028e-015 -3.18055e-015 1.98785e-016 -3.97569e-016 -3.18055e-015 -1.78906e-015 -7.95139e-016 3.18055e-015 5.96354e-016 -1.59028e-015 -0.0145939 -8.82836e-005 9.37668e-007 -1.59028e-014 -3.37934e-015 -4.37326e-015 3.18055e-015 5.96354e-016 -1.59028e-015 -0.0187903 -0.00117743 5.08658e-005 -5.51738e-033 3.97569e-016 7.95139e-016 3.18055e-015 5.96354e-016 -1.59028e-015 -0.0122864 -0.00325235 0.000670732 6.36111e-015 1.39149e-015 7.95139e-016 3.18055e-015 5.96354e-016 -1.59028e-015 -3.18055e-015 1.98785e-016 -3.97569e-016 -3.18055e-015 -1.78906e-015 -7.95139e-016 12.6877 5.3893 -7.01191 -10.6021 3.10471 44.3688 12.5707 -6.95877 47.086 25.2295 -33.3357 16.8873 4.77083e-015 1.98785e-016 7.95139e-016 1.59028e-015 1.39149e-015 1.19271e-015 5.17255e-032 2.48481e-015 -1.19271e-015 4.77083e-015 1.98785e-016 7.95139e-016 0.0150328 -9.07792e-005 2.5007e-007 -3.0543e-007 5.49235e-007 -1.40284e-006 4.77083e-015 1.98785e-016 7.95139e-016 0.0190222 -0.00119089 -5.66792e-005 1.43125e-014 1.98785e-015 1.59028e-015 4.77083e-015 1.98785e-016 7.95139e-016 0.012293 -0.00325219 -0.00067607 -1.59028e-015 -2.78299e-015 7.95139e-016 4.77083e-015 1.98785e-016 7.95139e-016 1.59028e-015 1.39149e-015 1.19271e-015 5.17255e-032 2.48481e-015 -1.19271e-015 -23.8227 -42.7071 -28.2827 75.1418 52.2924 -78.1308 -17.442 12.1591 24.2242 3.38777e-007 -7.7946e-007 -9.54702e-007 12.2984 -42.9557 12.543 -77.816 53.4221 87.0632 16.4185 9.07712 -22.7547 5.76527e-006 -1.35149e-006 -1.66397e-006 
-53.9378 95.4069 4.28605 166.667 -7.51338 1.45433e-008 -0.127412 -3.42524 -0.261257 -0.271268 -6.8498 -0.531589 -0.271269 -6.84981 -0.53159 8.01883e-006 29.136 6.73772e-007 2.00354e-008 -41.6197 -8.33857e-007 -17.8163 7.57314 10.9704 7.26747 1.34575 -80.7733 -21.1914 -7.33901 -58.9171 -37.4646 -50.4666 -23.2343 1.29946e-006 -1.87052e-007 -1.02332e-006 -4.41391e-032 -1.59028e-015 -1.59028e-015 -5.11661e-007 -1.90357e-007 -6.4973e-007 1.29946e-006 -1.87052e-007 -1.02332e-006 -0.0146739 -8.93401e-005 -3.70956e-006 -5.11674e-007 -1.90274e-007 -6.49754e-007 1.29946e-006 -1.87052e-007 -1.02332e-006 -0.018794 -0.00117604 5.6742e-005 -5.11684e-007 -1.90252e-007 -6.49756e-007 1.29946e-006 -1.87052e-007 -1.02332e-006 -0.012293 -0.00325494 0.000675829 -5.11691e-007 -1.90287e-007 -6.49735e-007 1.29946e-006 -1.87052e-007 -1.02332e-006 -4.41391e-032 -1.59028e-015 -1.59028e-015 -5.11661e-007 -1.90357e-007 -6.4973e-007 18.8279 7.31729 -10.8888 -16.3515 2.85835 65.149 21.1709 -5.46182 68.5964 45.2162 -46.0337 29.9424 2.64037e-007 2.02037e-006 1.46956e-006 -9.54166e-015 3.18055e-015 -8.74653e-015 -2.64037e-007 -2.02037e-006 -1.46956e-006 2.64037e-007 2.02037e-006 1.46956e-006 0.0150202 -8.48719e-005 -7.59328e-008 4.41391e-032 3.18055e-015 -7.95139e-016 2.64037e-007 2.02037e-006 1.46956e-006 0.0189909 -0.00119161 -6.05877e-005 -3.18055e-015 7.95139e-015 -1.59028e-015 2.64037e-007 2.02037e-006 1.46956e-006 0.0122978 -0.00325295 -0.000682533 5.73808e-031 3.18055e-015 -1.03368e-014 2.64037e-007 2.02037e-006 1.46956e-006 -9.54166e-015 3.18055e-015 -8.74653e-015 -2.64037e-007 -2.02037e-006 -1.46956e-006 -55.5882 -54.9019 -54.9683 124.841 33.0954 -110.655 -28.0986 15.3508 34.2881 -9.59727e-007 9.05004e-007 3.09674e-006 28.4242 -60.0622 23.5315 -120.5 31.1373 114.397 25.2656 13.3978 -33.7162 4.49604e-006 4.4338e-006 3.79718e-006 
-51.6445 94.6755 4.24163 -180 -6.99617 -7.01671e-015 -0.117465 -3.01432 -0.242717 -0.248253 -6.02807 -0.492656 -0.248253 -6.02807 -0.492657 3.04657e-006 27.5349 -3.5063e-007 5.38102e-008 -41.1031 -1.89762e-007 -16.5604 6.40395 11.6783 6.23465 1.75261 -75.523 -19.4742 -7.1302 -56.1553 -32.6534 -47.4766 -20.149 3.18055e-015 6.36111e-015 -1.59028e-015 -1.31401e-006 4.31235e-007 9.50585e-007 9.54166e-015 3.18055e-015 -0 3.18055e-015 6.36111e-015 -1.59028e-015 -0.0146039 -8.19182e-005 1.06424e-006 3.18055e-015 -3.18055e-015 -0 3.18055e-015 6.36111e-015 -1.59028e-015 -0.0188197 -0.00119017 6.07945e-005 3.18055e-015 0 -1.59028e-015 3.18055e-015 6.36111e-015 -1.59028e-015 -0.0122988 -0.00325578 0.00068316 6.36111e-015 3.18055e-015 -0 3.18055e-015 6.36111e-015 -1.59028e-015 -1.31401e-006 4.31235e-007 9.50585e-007 9.54166e-015 3.18055e-015 -0 17.4079 5.93829 -11.5182 -14.3756 3.42461 62.3184 19.3495 -5.91402 64.5585 39.6684 -43.6882 26.2985 -3.47078e-006 3.17069e-006 1.30498e-006 7.96154e-008 1.56183e-006 6.2956e-007 -3.04909e-007 3.18618e-006 3.00458e-006 -3.47078e-006 3.17069e-006 1.30498e-006 0.0150211 -8.92298e-005 2.21321e-006 -3.05628e-007 3.18657e-006 3.00416e-006 -3.47078e-006 3.17069e-006 1.30498e-006 0.0189947 -0.00118737 -5.83805e-005 -3.05792e-007 3.18673e-006 3.00406e-006 -3.47078e-006 3.17069e-006 1.30498e-006 0.012319 -0.00325362 -0.000671847 -3.05434e-007 3.18665e-006 3.00428e-006 -3.47078e-006 3.17069e-006 1.30498e-006 7.96154e-008 1.56183e-006 6.2956e-007 -3.04909e-007 3.18618e-006 3.00458e-006 -46.8682 -52.8221 -47.8116 116.281 38.6107 -106.836 -25.7597 14.7367 32.0163 -3.47344e-006 1.07149e-006 6.02597e-007 23.3158 -55.9008 20.5239 -112.883 37.0314 110.697 23.6399 12.8137 -30.3827 -6.08785e-007 -5.87163e-007 1.46154e-006 
